<svg xmlns="http://www.w3.org/2000/svg" xmlns:xlink="http://www.w3.org/1999/xlink" width="520" height="520" viewBox="305 631 520 520" fill="none">
<g id="Group 54" opacity="0.5">
<mask id="mask0_8481_453" style="mask-type:alpha" maskUnits="userSpaceOnUse" x="305" y="631" width="520" height="520">
<rect id="Rectangle 34650995" x="305" y="631" width="520" height="520" fill="#D9D9D9"/>
</mask>
<g mask="url(#mask0_8481_453)">
<rect id="Rectangle 34650996" x="305" y="631" width="520" height="520" stroke="#5521FF"/>
<g id="Group 51">
<line id="Line 270" x1="736.158" y1="199.682" x2="-127.425" y2="1063.27" stroke="#5521FF"/>
<line id="Line 271" x1="740.982" y1="204.506" x2="-122.601" y2="1068.09" stroke="#5521FF"/>
<line id="Line 272" x1="745.807" y1="209.331" x2="-117.777" y2="1072.91" stroke="#5521FF"/>
<line id="Line 273" x1="750.631" y1="214.155" x2="-112.952" y2="1077.74" stroke="#5521FF"/>
<line id="Line 274" x1="755.455" y1="218.981" x2="-108.128" y2="1082.56" stroke="#5521FF"/>
<line id="Line 275" x1="760.279" y1="223.805" x2="-103.304" y2="1087.39" stroke="#5521FF"/>
<line id="Line 276" x1="765.104" y1="228.63" x2="-98.4797" y2="1092.21" stroke="#5521FF"/>
<line id="Line 277" x1="769.932" y1="233.454" x2="-92.6867" y2="1096.07" stroke="#5521FF"/>
<line id="Line 278" x1="774.752" y1="238.279" x2="-87.8664" y2="1100.9" stroke="#5521FF"/>
<line id="Line 279" x1="779.576" y1="243.103" x2="-83.0422" y2="1105.72" stroke="#5521FF"/>
<line id="Line 280" x1="784.404" y1="247.927" x2="-78.2141" y2="1110.55" stroke="#5521FF"/>
<line id="Line 281" x1="789.229" y1="252.752" x2="-74.3547" y2="1116.34" stroke="#5521FF"/>
<line id="Line 282" x1="794.053" y1="257.576" x2="-69.5305" y2="1121.16" stroke="#5521FF"/>
<line id="Line 283" x1="798.877" y1="262.401" x2="-64.7062" y2="1125.98" stroke="#5521FF"/>
<line id="Line 284" x1="803.701" y1="267.225" x2="-59.882" y2="1130.81" stroke="#5521FF"/>
<line id="Line 285" x1="808.525" y1="272.05" x2="-55.0578" y2="1135.63" stroke="#5521FF"/>
<line id="Line 286" x1="813.35" y1="276.874" x2="-50.2336" y2="1140.46" stroke="#5521FF"/>
<line id="Line 287" x1="818.174" y1="281.699" x2="-45.4094" y2="1145.28" stroke="#5521FF"/>
<line id="Line 288" x1="822.998" y1="286.523" x2="-40.5851" y2="1150.11" stroke="#5521FF"/>
<line id="Line 289" x1="827.822" y1="291.347" x2="-35.7609" y2="1154.93" stroke="#5521FF"/>
<line id="Line 290" x1="832.647" y1="296.172" x2="-30.9367" y2="1159.76" stroke="#5521FF"/>
<line id="Line 291" x1="837.471" y1="300.996" x2="-25.1476" y2="1163.61" stroke="#5521FF"/>
<line id="Line 292" x1="842.295" y1="305.821" x2="-20.3234" y2="1168.44" stroke="#5521FF"/>
<line id="Line 293" x1="847.119" y1="310.645" x2="-15.4992" y2="1173.26" stroke="#5521FF"/>
<line id="Line 294" x1="851.943" y1="315.471" x2="-10.675" y2="1178.09" stroke="#5521FF"/>
<line id="Line 295" x1="856.768" y1="320.295" x2="-6.81561" y2="1183.88" stroke="#5521FF"/>
<line id="Line 296" x1="861.592" y1="325.12" x2="-1.9914" y2="1188.7" stroke="#5521FF"/>
<line id="Line 297" x1="866.416" y1="329.944" x2="2.83282" y2="1193.53" stroke="#5521FF"/>
<line id="Line 298" x1="871.24" y1="334.767" x2="7.65704" y2="1198.35" stroke="#5521FF"/>
<line id="Line 299" x1="876.064" y1="339.591" x2="12.4813" y2="1203.17" stroke="#5521FF"/>
<line id="Line 300" x1="880.889" y1="344.416" x2="17.3055" y2="1208" stroke="#5521FF"/>
<line id="Line 301" x1="885.713" y1="349.24" x2="22.1297" y2="1212.82" stroke="#5521FF"/>
<line id="Line 302" x1="890.537" y1="354.065" x2="26.9539" y2="1217.65" stroke="#5521FF"/>
<line id="Line 303" x1="895.361" y1="358.889" x2="31.7781" y2="1222.47" stroke="#5521FF"/>
<line id="Line 304" x1="900.189" y1="363.714" x2="36.6063" y2="1227.3" stroke="#5521FF"/>
<line id="Line 305" x1="905.01" y1="368.538" x2="42.3914" y2="1231.16" stroke="#5521FF"/>
<line id="Line 306" x1="909.834" y1="373.362" x2="47.2156" y2="1235.98" stroke="#5521FF"/>
<line id="Line 307" x1="914.662" y1="378.187" x2="52.0438" y2="1240.81" stroke="#5521FF"/>
<line id="Line 308" x1="919.486" y1="383.011" x2="56.868" y2="1245.63" stroke="#5521FF"/>
<line id="Line 309" x1="924.311" y1="387.836" x2="60.7274" y2="1251.42" stroke="#5521FF"/>
<line id="Line 310" x1="929.135" y1="392.66" x2="65.5516" y2="1256.24" stroke="#5521FF"/>
<line id="Line 311" x1="933.959" y1="397.485" x2="70.3758" y2="1261.07" stroke="#5521FF"/>
<line id="Line 312" x1="938.783" y1="402.309" x2="75.2" y2="1265.89" stroke="#5521FF"/>
<line id="Line 313" x1="943.607" y1="407.133" x2="80.0242" y2="1270.72" stroke="#5521FF"/>
<line id="Line 314" x1="948.432" y1="411.959" x2="84.8484" y2="1275.54" stroke="#5521FF"/>
<line id="Line 315" x1="953.256" y1="416.783" x2="89.6727" y2="1280.37" stroke="#5521FF"/>
<line id="Line 316" x1="958.08" y1="421.608" x2="94.4969" y2="1285.19" stroke="#5521FF"/>
<line id="Line 317" x1="962.904" y1="426.432" x2="99.3211" y2="1290.02" stroke="#5521FF"/>
<line id="Line 318" x1="967.729" y1="431.257" x2="104.145" y2="1294.84" stroke="#5521FF"/>
<line id="Line 319" x1="972.557" y1="436.081" x2="109.938" y2="1298.7" stroke="#5521FF"/>
<line id="Line 320" x1="977.381" y1="440.906" x2="114.763" y2="1303.52" stroke="#5521FF"/>
<line id="Line 321" x1="982.205" y1="445.73" x2="119.587" y2="1308.35" stroke="#5521FF"/>
<line id="Line 322" x1="987.029" y1="450.554" x2="124.411" y2="1313.17" stroke="#5521FF"/>
<line id="Line 323" x1="991.854" y1="455.379" x2="128.27" y2="1318.96" stroke="#5521FF"/>
<line id="Line 324" x1="996.678" y1="460.203" x2="133.095" y2="1323.79" stroke="#5521FF"/>
<line id="Line 325" x1="1001.5" y1="465.028" x2="137.919" y2="1328.61" stroke="#5521FF"/>
<line id="Line 326" x1="1006.33" y1="469.852" x2="142.743" y2="1333.44" stroke="#5521FF"/>
<line id="Line 327" x1="1011.15" y1="474.676" x2="147.567" y2="1338.26" stroke="#5521FF"/>
<line id="Line 328" x1="1015.97" y1="479.501" x2="152.391" y2="1343.08" stroke="#5521FF"/>
<line id="Line 329" x1="1020.8" y1="484.325" x2="157.216" y2="1347.91" stroke="#5521FF"/>
<line id="Line 330" x1="1025.62" y1="489.15" x2="162.04" y2="1352.73" stroke="#5521FF"/>
<line id="Line 331" x1="1030.45" y1="493.974" x2="166.864" y2="1357.56" stroke="#5521FF"/>
<line id="Line 332" x1="1035.27" y1="498.799" x2="171.688" y2="1362.38" stroke="#5521FF"/>
<line id="Line 333" x1="1040.1" y1="503.623" x2="177.477" y2="1366.24" stroke="#5521FF"/>
<line id="Line 334" x1="1044.92" y1="508.449" x2="182.302" y2="1371.07" stroke="#5521FF"/>
<line id="Line 335" x1="1049.75" y1="513.273" x2="187.13" y2="1375.89" stroke="#5521FF"/>
<line id="Line 336" x1="1054.57" y1="518.098" x2="191.954" y2="1380.72" stroke="#5521FF"/>
<line id="Line 337" x1="1059.4" y1="522.922" x2="195.813" y2="1386.51" stroke="#5521FF"/>
<line id="Line 338" x1="1064.22" y1="527.746" x2="200.638" y2="1391.33" stroke="#5521FF"/>
<line id="Line 339" x1="1069.04" y1="532.571" x2="205.462" y2="1396.15" stroke="#5521FF"/>
<line id="Line 340" x1="1073.87" y1="537.395" x2="210.286" y2="1400.98" stroke="#5521FF"/>
<line id="Line 341" x1="1078.69" y1="542.22" x2="215.11" y2="1405.8" stroke="#5521FF"/>
<line id="Line 342" x1="1083.52" y1="547.044" x2="219.934" y2="1410.63" stroke="#5521FF"/>
<line id="Line 343" x1="1088.34" y1="551.868" x2="224.759" y2="1415.45" stroke="#5521FF"/>
<line id="Line 344" x1="1093.17" y1="556.693" x2="229.583" y2="1420.28" stroke="#5521FF"/>
<line id="Line 345" x1="1097.99" y1="561.517" x2="234.407" y2="1425.1" stroke="#5521FF"/>
<line id="Line 346" x1="1102.82" y1="566.342" x2="239.235" y2="1429.93" stroke="#5521FF"/>
<line id="Line 347" x1="1107.64" y1="571.166" x2="245.024" y2="1433.78" stroke="#5521FF"/>
<line id="Line 348" x1="1112.47" y1="575.991" x2="249.848" y2="1438.61" stroke="#5521FF"/>
<line id="Line 349" x1="1117.29" y1="580.815" x2="254.673" y2="1443.43" stroke="#5521FF"/>
<line id="Line 350" x1="1122.12" y1="585.639" x2="259.497" y2="1448.26" stroke="#5521FF"/>
<line id="Line 351" x1="1126.94" y1="590.464" x2="263.356" y2="1454.05" stroke="#5521FF"/>
<line id="Line 352" x1="1131.76" y1="595.288" x2="268.18" y2="1458.87" stroke="#5521FF"/>
<line id="Line 353" x1="1136.59" y1="600.113" x2="273.005" y2="1463.7" stroke="#5521FF"/>
<line id="Line 354" x1="1141.41" y1="604.937" x2="277.829" y2="1468.52" stroke="#5521FF"/>
<line id="Line 355" x1="1146.24" y1="609.763" x2="282.653" y2="1473.35" stroke="#5521FF"/>
<line id="Line 356" x1="1151.06" y1="614.587" x2="287.477" y2="1478.17" stroke="#5521FF"/>
<line id="Line 357" x1="1155.88" y1="619.411" x2="292.302" y2="1482.99" stroke="#5521FF"/>
<line id="Line 358" x1="1160.71" y1="624.236" x2="297.126" y2="1487.82" stroke="#5521FF"/>
<line id="Line 359" x1="1165.54" y1="629.06" x2="301.954" y2="1492.64" stroke="#5521FF"/>
<line id="Line 360" x1="1170.36" y1="633.885" x2="306.774" y2="1497.47" stroke="#5521FF"/>
<line id="Line 361" x1="1175.18" y1="638.709" x2="312.563" y2="1501.33" stroke="#5521FF"/>
<line id="Line 362" x1="1180.01" y1="643.533" x2="317.391" y2="1506.15" stroke="#5521FF"/>
<line id="Line 363" x1="1184.83" y1="648.358" x2="322.216" y2="1510.98" stroke="#5521FF"/>
<line id="Line 364" x1="1189.66" y1="653.182" x2="327.04" y2="1515.8" stroke="#5521FF"/>
<line id="Line 365" x1="1194.48" y1="658.007" x2="330.899" y2="1521.59" stroke="#5521FF"/>
<line id="Line 366" x1="1199.31" y1="662.831" x2="335.723" y2="1526.41" stroke="#5521FF"/>
<line id="Line 367" x1="1204.13" y1="667.656" x2="340.548" y2="1531.24" stroke="#5521FF"/>
<line id="Line 368" x1="1208.96" y1="672.48" x2="345.372" y2="1536.06" stroke="#5521FF"/>
<line id="Line 369" x1="1213.78" y1="677.304" x2="350.196" y2="1540.89" stroke="#5521FF"/>
<line id="Line 370" x1="1218.6" y1="682.129" x2="355.02" y2="1545.71" stroke="#5521FF"/>
<line id="Line 371" x1="1223.43" y1="686.953" x2="359.845" y2="1550.54" stroke="#5521FF"/>
<line id="Line 372" x1="1228.25" y1="691.778" x2="364.669" y2="1555.36" stroke="#5521FF"/>
<line id="Line 373" x1="1233.08" y1="696.603" x2="369.493" y2="1560.19" stroke="#5521FF"/>
<line id="Line 374" x1="1237.9" y1="701.428" x2="374.317" y2="1565.01" stroke="#5521FF"/>
<line id="Line 375" x1="1242.73" y1="706.252" x2="380.11" y2="1568.87" stroke="#5521FF"/>
<line id="Line 376" x1="1247.55" y1="711.076" x2="384.93" y2="1573.69" stroke="#5521FF"/>
<line id="Line 377" x1="1252.38" y1="715.901" x2="389.759" y2="1578.52" stroke="#5521FF"/>
</g>
</g>
</g>
</svg>
